<svg xmlns="http://www.w3.org/2000/svg" xmlns:xlink="http://www.w3.org/1999/xlink" viewBox="0 0 582.49 302.87"><defs><style>.cls-1,.cls-10{fill:#231f20;}.cls-2,.cls-3,.cls-4,.cls-5,.cls-6,.cls-7{fill:none;}.cls-2,.cls-5{stroke:#1c75bc;}.cls-10,.cls-2,.cls-3,.cls-4,.cls-5,.cls-6,.cls-7,.cls-8,.cls-9{stroke-miterlimit:10;}.cls-3,.cls-4{stroke:#ed1c24;}.cls-4,.cls-5,.cls-6{stroke-dasharray:5 5;}.cls-10,.cls-6,.cls-7,.cls-8,.cls-9{stroke:#231f20;}.cls-8{fill:url(#linear-gradient);}.cls-9{fill:url(#linear-gradient-2);}</style><linearGradient id="linear-gradient" x1="313.8" y1="18.5" x2="313.8" y2="83.64" gradientUnits="userSpaceOnUse"><stop offset="0" stop-color="#c7eafb"/><stop offset="0.52" stop-color="#fff"/><stop offset="1" stop-color="#c7eafb"/></linearGradient><linearGradient id="linear-gradient-2" x1="313.8" y1="197.02" x2="313.8" y2="262.17" xlink:href="#linear-gradient"/></defs><g id="Layer_2" data-name="Layer 2"><g id="Layer_1-2" data-name="Layer 1"><path class="cls-1" d="M414.45,275.1h1.16v7.74h1.95v1h-3.11Z"/><path class="cls-1" d="M419.76,283.93c-1.23,0-1.85-1-1.85-3s.62-3,1.85-3,1.84,1,1.84,3S421,283.93,419.76,283.93Zm0-1c.35,0,.58-.28.68-.84a8.79,8.79,0,0,0,.05-1.16,8.92,8.92,0,0,0-.05-1.19c-.1-.57-.33-.85-.68-.85s-.58.28-.68.85a10.09,10.09,0,0,0-.05,1.19,9.85,9.85,0,0,0,.05,1.16C419.18,282.65,419.41,282.93,419.76,282.93Z"/><path class="cls-1" d="M423.52,278v.67a1.28,1.28,0,0,1,1.19-.77,1,1,0,0,1,1.05.63,3.66,3.66,0,0,1,.16,1.3v4h-1.09v-4c0-.61-.21-.92-.65-.92a.58.58,0,0,0-.6.47,3.77,3.77,0,0,0-.06.85v3.65h-1.09V278Z"/><path class="cls-1" d="M430.36,278v5.89a3.93,3.93,0,0,1-.28,1.77,1.59,1.59,0,0,1-1.51.68,1.74,1.74,0,0,1-1.26-.44,1.65,1.65,0,0,1-.46-1.25v-.16h1a1,1,0,0,0,.16.62.62.62,0,0,0,.54.26.57.57,0,0,0,.61-.42,3.39,3.39,0,0,0,.06-.82l0-1a1,1,0,0,1-1,.79c-.6,0-1-.38-1.22-1.12a6.92,6.92,0,0,1-.19-1.86,7.83,7.83,0,0,1,.16-1.87c.21-.79.62-1.19,1.24-1.19a1.23,1.23,0,0,1,1.08.79l0,0,0-.67Zm-1.09,2.95c0-1.38-.24-2.07-.71-2.07-.31,0-.52.28-.62.84a7.8,7.8,0,0,0-.06,1.17,7.21,7.21,0,0,0,.07,1.21c.1.58.31.87.65.87s.55-.28.63-.84A8.92,8.92,0,0,0,429.27,280.94Z"/><path class="cls-1" d="M434.7,281.13h-2.41q0,1.83.69,1.83c.45,0,.68-.37.68-1.09h1a2.33,2.33,0,0,1-.4,1.43,1.64,1.64,0,0,1-2.81-.39,5.28,5.28,0,0,1-.28-2c0-2,.58-3.06,1.75-3.06s1.77,1,1.77,3.06Zm-2.41-.78h1.3c0-1-.22-1.48-.66-1.48s-.49.19-.58.56A4.64,4.64,0,0,0,432.29,280.35Z"/><path class="cls-1" d="M436.63,278v.72a1.32,1.32,0,0,1,1.26-.82V279h-.19c-.71-.05-1.07.35-1.07,1.19v3.68h-1.09V278Z"/><path class="cls-1" d="M440.76,278h.55V276.1a3.47,3.47,0,0,1,.19-1.36,1.13,1.13,0,0,1,1.13-.61,1.86,1.86,0,0,1,.73.16v1.14a.89.89,0,0,0-.45-.14.45.45,0,0,0-.47.32,2.78,2.78,0,0,0,0,.62V278h.9v.85h-.9v5h-1.09v-5h-.55Z"/><polyline class="cls-2" points="544.74 229.69 313.3 197.77 11.55 197.77"/><polyline class="cls-2" points="544.74 229.69 313.3 260.82 11.55 260.74"/><polyline class="cls-3" points="544.74 197.77 313.3 198.17 11.55 239.4"/><polyline class="cls-3" points="544.74 197.77 313.3 261.21 11.55 302.37"/><line class="cls-4" x1="544.74" y1="197.77" x2="11.55" y2="271.12"/><line class="cls-5" x1="544.74" y1="229.69" x2="11.55" y2="229.69"/><path class="cls-6" d="M35.75,233.25s-1.33,17.88,8.3,31.43"/><line class="cls-7" x1="313.8" y1="268.66" x2="313.8" y2="292.09"/><line class="cls-7" x1="544.74" y1="268.66" x2="544.74" y2="292.09"/><path class="cls-1" d="M354.31,97.28v1.17a1.67,1.67,0,0,0-1-.37.93.93,0,0,0-.75.32,1.17,1.17,0,0,0-.28.8,1.35,1.35,0,0,0,.32,1l.88,1a6.23,6.23,0,0,1,.9,1.15,2.83,2.83,0,0,1,.34,1.41,2.4,2.4,0,0,1-.54,1.6,1.86,1.86,0,0,1-1.51.68,2,2,0,0,1-1.28-.41v-1.17a2,2,0,0,0,1.15.45.92.92,0,0,0,.78-.37,1.4,1.4,0,0,0,.24-.85,2,2,0,0,0-.64-1.4l-1.17-1.2a2.83,2.83,0,0,1-.63-1.78,2.43,2.43,0,0,1,.48-1.57,1.77,1.77,0,0,1,1.47-.66A2.33,2.33,0,0,1,354.31,97.28Z"/><path class="cls-1" d="M355.51,96.22h1.08v4.44a1.3,1.3,0,0,1,1.2-.77,1,1,0,0,1,1,.63,3.69,3.69,0,0,1,.16,1.3v4H357.9v-4c0-.61-.21-.92-.64-.92a.6.6,0,0,0-.61.47,3.77,3.77,0,0,0-.06.85v3.65h-1.08Z"/><path class="cls-1" d="M361.67,105.93c-1.23,0-1.84-1-1.84-3s.61-3,1.84-3,1.84,1,1.84,3S362.9,105.93,361.67,105.93Zm0-1c.35,0,.58-.28.68-.84a8.79,8.79,0,0,0,0-1.16,8.92,8.92,0,0,0,0-1.19c-.1-.57-.33-.85-.68-.85s-.57.28-.67.85a7.84,7.84,0,0,0-.06,1.19,7.64,7.64,0,0,0,.06,1.16C361.1,104.65,361.32,104.93,361.67,104.93Z"/><path class="cls-1" d="M365.44,100v.72a1.34,1.34,0,0,1,1.26-.82V101h-.19c-.72,0-1.07.35-1.07,1.19v3.68h-1.09V100Z"/><path class="cls-1" d="M367.69,98.33h1.09V100h.58v.85h-.58v5h-1.09v-5h-.59V100h.59Z"/><path class="cls-1" d="M373.37,103.13H371q0,1.83.69,1.83c.45,0,.68-.37.68-1.09h1a2.38,2.38,0,0,1-.4,1.44,1.65,1.65,0,0,1-2.81-.4,5.28,5.28,0,0,1-.28-2c0-2,.58-3.06,1.75-3.06s1.77,1,1.77,3.06Zm-2.41-.78h1.3c0-1-.22-1.48-.66-1.48s-.49.19-.58.57A4.45,4.45,0,0,0,371,102.35Z"/><path class="cls-1" d="M375.29,100v.72a1.36,1.36,0,0,1,1.27-.82V101h-.19c-.72,0-1.08.35-1.08,1.19v3.68h-1.08V100Z"/><path class="cls-1" d="M379.43,100H380V98.1a3.47,3.47,0,0,1,.19-1.36,1.13,1.13,0,0,1,1.13-.61,1.86,1.86,0,0,1,.73.16v1.14a.89.89,0,0,0-.45-.14.45.45,0,0,0-.47.32,2.78,2.78,0,0,0,0,.62V100h.9v.85h-.9v5H380v-5h-.55Z"/><path class="cls-1" d="M443.4,29.68h1.16v3.41h1.75V29.68h1.16v8.74h-1.16V34.09h-1.75v4.33H443.4Z"/><path class="cls-1" d="M452.33,28.8h.91l-4.46,10.81h-.94Z"/><path class="cls-1" d="M455.3,29.58q1.95,0,1.95,2.16A10.63,10.63,0,0,1,455.74,36L455,37.42h2.17v1h-3.85l2.12-4.48a5.51,5.51,0,0,0,.63-2.28c0-.69-.26-1-.78-1-.33,0-.54.23-.62.7a6.28,6.28,0,0,0-.05,1v.23h-1.18v-.31a4.17,4.17,0,0,1,.3-1.84A1.6,1.6,0,0,1,455.3,29.58Z"/><polyline class="cls-2" points="419.51 50.95 313.3 19.03 11.55 19.03"/><polyline class="cls-2" points="419.51 50.95 313.3 82.07 11.55 82"/><polyline class="cls-3" points="419.51 19.03 313.3 19.43 11.55 109.72"/><polyline class="cls-3" points="419.51 19.03 313.3 82.47 11.55 172.69"/><line class="cls-4" x1="419.51" y1="19.03" x2="11.55" y2="140.44"/><line class="cls-5" x1="419.51" y1="50.95" x2="11.55" y2="50.95"/><path class="cls-6" d="M27.89,53.66S23.5,95,55.15,126.35"/><path class="cls-1" d="M1.9,89.21h.92L4.69,98H3.52l-.32-1.7H1.46L1.14,98H0ZM3,95.34l-.23-1.26-.44-3.17h0l-.7,4.43Z"/><path class="cls-1" d="M5.46,89.21H8.6v1h-2V93H8.4v1H6.62v4H5.46Z"/><path class="cls-1" d="M11.47,89.1a2,2,0,0,1,2,1.64,10.12,10.12,0,0,1,.29,2.84,10,10,0,0,1-.29,2.83,2,2,0,0,1-4,0,14,14,0,0,1,0-5.67A2,2,0,0,1,11.47,89.1Zm0,1.09q-.63,0-.87,1a17,17,0,0,0,0,4.79c.16.67.45,1,.87,1s.71-.34.87-1a11.3,11.3,0,0,0,.17-2.39,11.41,11.41,0,0,0-.17-2.4Q12.1,90.19,11.47,90.19Z"/><path class="cls-1" d="M14.31,89.21h1.16l1,6.57h0l.06-.54L17,92.3l.53-3.09h1.1L16.93,98H16Z"/><path class="cls-1" d="M22.86,88.33h.92L19.31,99.14h-.94Z"/><path class="cls-1" d="M25.84,89.11c1.3,0,1.94.72,1.94,2.16a10.73,10.73,0,0,1-1.5,4.27L25.54,97H27.7v1H23.86L26,93.47a5.59,5.59,0,0,0,.62-2.27c0-.7-.26-1-.77-1-.34,0-.54.23-.63.7a6.28,6.28,0,0,0-.05,1v.23H24v-.31a4.17,4.17,0,0,1,.3-1.84A1.61,1.61,0,0,1,25.84,89.11Z"/><path class="cls-1" d="M1.9,247.81h.92l1.87,8.74H3.52l-.32-1.71H1.46l-.32,1.71H0ZM3,253.94l-.23-1.26-.44-3.18h0l-.7,4.44Z"/><path class="cls-1" d="M5.46,247.81H8.6v1h-2v2.75H8.4v1H6.62v4H5.46Z"/><path class="cls-1" d="M11.47,247.69a2,2,0,0,1,2,1.65,14,14,0,0,1,0,5.67,2,2,0,0,1-4,0,14,14,0,0,1,0-5.67A2,2,0,0,1,11.47,247.69Zm0,1.09c-.42,0-.71.34-.87,1a17,17,0,0,0,0,4.79c.16.67.45,1,.87,1s.71-.33.87-1a11.36,11.36,0,0,0,.17-2.39,11.41,11.41,0,0,0-.17-2.4C12.18,249.12,11.89,248.78,11.47,248.78Z"/><path class="cls-1" d="M14.31,247.81h1.16l1,6.57h0l.06-.54.46-3,.53-3.08h1.1l-1.71,8.74H16Z"/><path class="cls-1" d="M22.86,246.93h.92l-4.47,10.81h-.94Z"/><path class="cls-1" d="M25.84,247.71c1.3,0,1.94.72,1.94,2.15a10.68,10.68,0,0,1-1.5,4.27l-.74,1.42H27.7v1H23.86L26,252.06a5.59,5.59,0,0,0,.62-2.27c0-.69-.26-1-.77-1-.34,0-.54.23-.63.69a6.54,6.54,0,0,0-.05,1v.23H24v-.31a4.22,4.22,0,0,1,.3-1.85A1.62,1.62,0,0,1,25.84,247.71Z"/><line class="cls-7" x1="313.8" y1="90.17" x2="313.8" y2="113.59"/><line class="cls-7" x1="419.51" y1="90.17" x2="419.51" y2="113.59"/><line class="cls-7" x1="424.2" y1="50.95" x2="447.62" y2="50.95"/><line class="cls-7" x1="424.2" y1="19.03" x2="447.62" y2="19.03"/><path class="cls-1" d="M568.64,209.4h1.16v3.4h1.75v-3.4h1.16v8.73h-1.16V213.8H569.8v4.33h-1.16Z"/><path class="cls-1" d="M577.56,208.52h.92L574,219.33h-.94Z"/><path class="cls-1" d="M580.54,209.29q2,0,2,2.16a10.79,10.79,0,0,1-1.51,4.27l-.74,1.42h2.16v1h-3.84l2.12-4.48a5.59,5.59,0,0,0,.62-2.27c0-.7-.26-1-.77-1q-.49,0-.63.69a6.85,6.85,0,0,0,0,1v.24h-1.19v-.32a4.17,4.17,0,0,1,.3-1.84A1.62,1.62,0,0,1,580.54,209.29Z"/><line class="cls-7" x1="549.43" y1="229.69" x2="572.85" y2="229.69"/><line class="cls-7" x1="549.43" y1="197.77" x2="572.85" y2="197.77"/><path class="cls-8" d="M303.94,51c0,14.63,2.48,27.19,6,32.57h7.69c3.54-5.38,6-17.94,6-32.57s-2.48-27.2-6-32.58H310C306.42,23.75,303.94,36.31,303.94,51Z"/><path class="cls-9" d="M303.94,229.47c0,14.64,2.48,27.2,6,32.57h7.69c3.54-5.37,6-17.93,6-32.57s-2.48-27.2-6-32.57H310C306.42,202.27,303.94,214.83,303.94,229.47Z"/><path class="cls-1" d="M16.23.86a2,2,0,0,1,2,1.64,10.07,10.07,0,0,1,.29,2.84,10,10,0,0,1-.29,2.83,2,2,0,0,1-4,0A10.43,10.43,0,0,1,14,5.34a10.46,10.46,0,0,1,.29-2.84A2,2,0,0,1,16.23.86Zm0,1.09c-.42,0-.7.33-.87,1a12.14,12.14,0,0,0-.17,2.4,12,12,0,0,0,.17,2.39c.17.67.45,1,.87,1s.71-.34.87-1a11.3,11.3,0,0,0,.17-2.39,11.41,11.41,0,0,0-.17-2.4Q16.86,1.95,16.23,2Z"/><path class="cls-1" d="M19.49,9.71V.09h1.09V4.51a1.12,1.12,0,0,1,1.05-.74c.95,0,1.43,1,1.43,2.94S22.59,9.8,21.67,9.8A1,1,0,0,1,21,9.57a1.5,1.5,0,0,1-.4-.61v.75Zm1.74-.88c.34,0,.56-.28.66-.85a10.42,10.42,0,0,0,.05-1.2,10.42,10.42,0,0,0-.05-1.2q-.15-.84-.66-.84-.69,0-.69,2C20.54,8.15,20.77,8.83,21.23,8.83Z"/><path class="cls-1" d="M24.45,2.82a.73.73,0,0,1-.52-.22.69.69,0,0,1-.21-.51.66.66,0,0,1,.21-.51.72.72,0,0,1,.52-.21.66.66,0,0,1,.5.22.7.7,0,0,1,.22.51.72.72,0,0,1-.72.72Zm.53,1v8.25H23.89V3.86Z"/><path class="cls-1" d="M29.34,7H26.93c0,1.22.22,1.83.68,1.83s.68-.36.68-1.09h1a2.45,2.45,0,0,1-.39,1.44,1.53,1.53,0,0,1-1.31.62,1.51,1.51,0,0,1-1.51-1,5.5,5.5,0,0,1-.28-2c0-2,.59-3.05,1.75-3.05s1.78,1,1.78,3.05Zm-2.41-.78h1.29c0-1-.22-1.48-.66-1.48-.29,0-.48.19-.58.57A5.71,5.71,0,0,0,26.93,6.22Z"/><path class="cls-1" d="M32.6,4v1.1h0a.58.58,0,0,0-.51-.27c-.64,0-1,.64-1,1.94s.31,2,.94,2a.93.93,0,0,0,.55-.22v1a1.63,1.63,0,0,1-.88.23c-1.15,0-1.72-1-1.72-3s.58-3.07,1.74-3.07A2,2,0,0,1,32.6,4Z"/><path class="cls-1" d="M33.62,2.2h1.09V3.86h.58v.86h-.58v5H33.62v-5H33V3.86h.59Z"/><path class="cls-1" d="M40.65,9.71V9a1.73,1.73,0,0,1-.4.61,1,1,0,0,1-.69.23c-.93,0-1.39-1-1.39-3.09s.47-2.94,1.42-2.94a1.11,1.11,0,0,1,1.06.74V3.86h1.08V9.71ZM40,8.83c.45,0,.68-.68.68-2s-.23-2-.68-2-.57.28-.66.84a8.09,8.09,0,0,0-.06,1.2A7.91,7.91,0,0,0,39.34,8C39.43,8.55,39.65,8.83,40,8.83Z"/><path class="cls-1" d="M43,2.2h1.09V3.86h.58v.86h-.58v5H43v-5h-.59V3.86H43Z"/><path class="cls-1" d="M49,1V9.71H47.86V1Z"/><path class="cls-1" d="M51.33,3.86v.67a1.26,1.26,0,0,1,1.19-.76,1,1,0,0,1,1,.62,3.64,3.64,0,0,1,.17,1.3v4H52.64v-4c0-.62-.22-.93-.65-.93a.58.58,0,0,0-.6.47,3.77,3.77,0,0,0-.06.85V9.71H50.24V3.86Z"/><path class="cls-1" d="M54.47,3.86H55V2a3.43,3.43,0,0,1,.2-1.36A1.11,1.11,0,0,1,56.33,0a1.82,1.82,0,0,1,.73.16V1.3a.89.89,0,0,0-.45-.14.44.44,0,0,0-.46.32,2.6,2.6,0,0,0,0,.62V3.86H57v.86h-.9v5H55v-5h-.54Z"/><path class="cls-1" d="M58.16,2.82a.7.7,0,0,1-.51-.22.67.67,0,0,1-.22-.51.64.64,0,0,1,.22-.51.69.69,0,0,1,.51-.21.71.71,0,0,1,.51.21.69.69,0,0,1,.21.51.69.69,0,0,1-.21.51A.7.7,0,0,1,58.16,2.82Zm.54,1V9.71H57.61V3.86Z"/><path class="cls-1" d="M60.79,3.86v.67A1.29,1.29,0,0,1,62,3.77a1,1,0,0,1,1,.62,3.69,3.69,0,0,1,.16,1.3v4H62.1v-4c0-.62-.21-.93-.65-.93a.58.58,0,0,0-.6.47,3.77,3.77,0,0,0-.06.85V9.71H59.7V3.86Z"/><path class="cls-1" d="M64.74,2.82a.7.7,0,0,1-.51-.22A.7.7,0,0,1,64,2.09a.67.67,0,0,1,.22-.51.72.72,0,0,1,1.23.51.69.69,0,0,1-.21.51A.67.67,0,0,1,64.74,2.82Zm.54,1V9.71H64.19V3.86Z"/><path class="cls-1" d="M66.52,2.2h1.09V3.86h.58v.86h-.58v5H66.52v-5h-.59V3.86h.59Z"/><path class="cls-1" d="M68.39,3.86h1.22l.86,4.08h0l1-4.08h1.1l-2.39,8.25H69L70,9.24Z"/><line class="cls-7" x1="385.99" y1="101.88" x2="418.08" y2="101.88"/><line class="cls-7" x1="317.31" y1="101.88" x2="346.52" y2="101.88"/><polygon class="cls-10" points="413.74 102.99 417.83 101.89 413.75 100.77 413.74 102.99"/><polygon class="cls-10" points="319.11 100.77 315.02 101.87 319.1 102.99 319.11 100.77"/><line class="cls-7" x1="447.4" y1="280.38" x2="543.99" y2="280.38"/><line class="cls-7" x1="317.31" y1="280.38" x2="409.93" y2="280.38"/><polygon class="cls-10" points="539.65 281.49 543.75 280.39 539.66 279.26 539.65 281.49"/><polygon class="cls-10" points="319.11 279.26 315.02 280.36 319.1 281.49 319.11 279.26"/><line class="cls-7" x1="436.35" y1="45" x2="436.35" y2="19.94"/><polygon class="cls-10" points="437.46 24.45 436.36 20.19 435.24 24.44 437.46 24.45"/><polygon class="cls-10" points="435.24 45 436.33 49.26 437.46 45.01 435.24 45"/><line class="cls-7" x1="561.14" y1="224.14" x2="561.14" y2="199.07"/><polygon class="cls-10" points="562.25 203.58 561.15 199.33 560.03 203.57 562.25 203.58"/><polygon class="cls-10" points="560.03 224.14 561.13 228.39 562.25 224.15 560.03 224.14"/></g></g></svg>